<svg xmlns="http://www.w3.org/2000/svg" width="512" height="512" viewBox="0 0 512 512"><defs><style>.a{fill:#fff;}</style></defs><title>analytics</title><path class="a" d="M501.33,490.67H490.67V181.33A10.67,10.67,0,0,0,480,170.67H416a10.67,10.67,0,0,0-10.67,10.66V490.67H362.67V309.33A10.67,10.67,0,0,0,352,298.67H288a10.67,10.67,0,0,0-10.67,10.66V490.67H234.67v-224A10.67,10.67,0,0,0,224,256H160a10.67,10.67,0,0,0-10.67,10.67v224H106.67V373.33A10.67,10.67,0,0,0,96,362.67H32a10.67,10.67,0,0,0-10.67,10.66V490.67H10.67a10.67,10.67,0,1,0,0,21.33H501.33a10.67,10.67,0,1,0,0-21.33ZM426.67,192h42.66V490.67H426.67Zm-128,128h42.66V490.67H298.67Zm-128-42.67h42.66V490.67H170.67ZM85.33,490.67H42.67V384H85.33V490.67Z"/><path class="a" d="M64,277.33A42.64,42.64,0,0,0,101.31,214l65.07-51.89a42.61,42.61,0,0,0,62.41-12.52l49.14,14a42.25,42.25,0,0,0-.6,7.07A42.67,42.67,0,1,0,356.74,149l69.6-69.6a42.73,42.73,0,1,0-15.08-15.08l-69.6,69.6a42.57,42.57,0,0,0-54.88,10l-52.14-14.87c0-.35,0-.7,0-1.06a42.67,42.67,0,1,0-81.61,17.42l-66.52,53A42.66,42.66,0,1,0,64,277.33Zm384-256a21.34,21.34,0,1,1-14.89,36.58l-.17-.18-.19-.17A21.32,21.32,0,0,1,448,21.33Zm-128,128a21.34,21.34,0,1,1-21.33,21.34A21.35,21.35,0,0,1,320,149.33ZM192,106.67a21.33,21.33,0,1,1-16.4,35c-.08-.11-.15-.22-.24-.33l-.13-.14A21.31,21.31,0,0,1,192,106.67ZM64,213.33a21.27,21.27,0,0,1,15,6.18l.2.21A21.31,21.31,0,1,1,64,213.33Z"/></svg>