<svg xmlns="http://www.w3.org/2000/svg" width="511.86" height="512" viewBox="0 0 511.86 512"><defs><style>.a{fill:#fff;}</style></defs><title>blog</title><path class="a" d="M358.3,0H153.56C68.89,0,0,68.89,0,153.56V273c0,81.82,64.31,148.89,145,153.33v71.19A14.53,14.53,0,0,0,159.56,512a14.34,14.34,0,0,0,10.19-4.26l16-16a221.06,221.06,0,0,1,157.35-65.19H358.3c84.68,0,153.56-68.89,153.56-153.56V153.56C511.86,68.89,443,0,358.3,0ZM145,247.4a34.13,34.13,0,1,1,34.12-34.12A34.16,34.16,0,0,1,145,247.4Zm110.9,0a34.13,34.13,0,1,1,34.13-34.12A34.15,34.15,0,0,1,255.93,247.4Zm110.91,0A34.13,34.13,0,1,1,401,213.28,34.16,34.16,0,0,1,366.84,247.4Z"/></svg>