<svg xmlns="http://www.w3.org/2000/svg" width="396.32" height="369.04" viewBox="0 0 396.32 369.04"><title>home</title><path d="M389.66,166.77,329.6,106.71V37.32a22.71,22.71,0,0,0-45.43,0v24L239.45,16.55c-22.11-22.1-60.56-22.06-82.62,0L6.65,166.77A22.72,22.72,0,0,0,38.78,198.9L189,48.72a13.41,13.41,0,0,1,18.38,0L357.53,198.9a22.72,22.72,0,1,0,32.14-32.12Z"/><path d="M206,91.83a11.15,11.15,0,0,0-15.78,0L58.17,223.89a11.17,11.17,0,0,0-3.27,7.9v96.32A40.93,40.93,0,0,0,95.83,369h65.4V267.75h73.84V369h65.41a40.93,40.93,0,0,0,40.92-40.93V231.79a11.14,11.14,0,0,0-3.27-7.9Z"/></svg>