<svg xmlns="http://www.w3.org/2000/svg" width="512" height="511.83" viewBox="0 0 512 511.83"><defs><style>.a{fill:#fff;}</style></defs><title>seo</title><path class="a" d="M213.45,34.15A179.13,179.13,0,1,0,392.58,213.28,179.13,179.13,0,0,0,213.45,34.15Zm0,17.06A161.89,161.89,0,0,1,345.8,120.05l-21.33,21.32a33.64,33.64,0,0,0-17.19-4.86,34.12,34.12,0,0,0-34.12,34.12A33.72,33.72,0,0,0,278,187.85l-55.85,55.86a33.09,33.09,0,0,0-34.45,0l-38.79-38.8a34,34,0,1,0-62.19-25.75H55.06A162.3,162.3,0,0,1,213.45,51.21ZM324.34,170.63a17.06,17.06,0,1,1-17.06-17.06A17.06,17.06,0,0,1,324.34,170.63ZM222,273a17.06,17.06,0,1,1-17.06-17.06A17.06,17.06,0,0,1,222,273Zm-85.3-85.3a17.07,17.07,0,1,1-17.06-17.06A17.06,17.06,0,0,1,136.68,187.69ZM292.19,355A162.15,162.15,0,0,1,51.37,213.5a163.55,163.55,0,0,1,.92-17.28H86.71a34.11,34.11,0,0,0,32.91,25.59A33.63,33.63,0,0,0,136.84,217l38.79,38.8A33.72,33.72,0,0,0,170.8,273,34.12,34.12,0,0,0,239,273a33.63,33.63,0,0,0-4.84-17.22l55.86-55.86a33.58,33.58,0,0,0,17.22,4.84,34.13,34.13,0,0,0,34.12-34.12,33.63,33.63,0,0,0-4.84-17.22l18.6-18.59A161.92,161.92,0,0,1,292.19,355Z"/><path class="a" d="M426.7,85.33a34.12,34.12,0,0,0,32.91-25.59H512V42.68H459.61a34,34,0,0,0-67,8.53,33.72,33.72,0,0,0,4.83,17.22l-15,15C310.72-10,176.84-27.61,83.42,44.1s-111,205.58-39.32,299a213.25,213.25,0,0,0,285.08,49.15L354.93,418,367,430.06l68.67,68.67a44.72,44.72,0,0,0,63.24-63.24l-68.67-68.67-12.06-12.06L392.42,329a212.55,212.55,0,0,0,0-231.48l17.06-17.06A33.74,33.74,0,0,0,426.7,85.33Zm0-51.18a17.06,17.06,0,1,1-17.06,17.06A17.06,17.06,0,0,1,426.7,34.15Zm60.14,413.4a27.66,27.66,0,1,1-38.68,39.56c-.15-.14-.3-.29-.44-.44L379.05,418l39.12-39.12Zm-80.73-80.73L367,405.94l-23.61-23.61c1.2-.92,2.33-1.94,3.51-2.88s2.56-2.09,3.83-3.15c1.87-1.57,3.71-3.16,5.52-4.79.93-.85,1.82-1.7,2.73-2.56q5.25-4.9,10.16-10.16c.85-.91,1.71-1.8,2.56-2.72,1.63-1.81,3.21-3.66,4.78-5.52,1.07-1.27,2.12-2.54,3.15-3.83s1.95-2.31,2.88-3.51ZM373,327.2c-2.69,3.75-5.46,7.43-8.39,11-.85,1-1.76,2-2.64,3q-3.92,4.56-8.09,8.84-1.82,1.88-3.69,3.69-4.28,4.18-8.84,8.09c-1,.85-2,1.78-3,2.65-3.54,2.92-7.22,5.69-11,8.38C239.06,436,116.34,415.5,53.25,327.2s-42.64-211,45.66-274.12S309.94,10.44,373,98.75A196.51,196.51,0,0,1,373,327.2Z"/></svg>