<svg xmlns="http://www.w3.org/2000/svg" width="184.98" height="184.98" viewBox="0 0 184.98 184.98"><title>service</title><path d="M184.4,82.23c-.29-2.6-3.32-4.56-5.95-4.56a20.42,20.42,0,0,1-14-35.54,5.14,5.14,0,0,0,.56-7,91.54,91.54,0,0,0-14.65-14.8,5.15,5.15,0,0,0-7,.57,21.32,21.32,0,0,1-23.07,5.18A20.55,20.55,0,0,1,107.8,6a5.13,5.13,0,0,0-4.54-5.4A92.27,92.27,0,0,0,82.45.56a5.16,5.16,0,0,0-4.58,5.29A20.58,20.58,0,0,1,65.2,25.59a21.38,21.38,0,0,1-22.9-5.21,5.15,5.15,0,0,0-7-.59,91.92,91.92,0,0,0-15,14.79,5.15,5.15,0,0,0,.55,7,20.49,20.49,0,0,1,5.17,23.08C22.9,72.29,15,77.19,6,77.19A5,5,0,0,0,.62,81.73a92.84,92.84,0,0,0,0,21c.29,2.61,3.41,4.55,6.07,4.55a20.28,20.28,0,0,1,19,12.67,20.58,20.58,0,0,1-5.17,22.88,5.13,5.13,0,0,0-.56,7,91.77,91.77,0,0,0,14.63,14.8,5.14,5.14,0,0,0,7-.56,21.29,21.29,0,0,1,23.06-5.18A20.52,20.52,0,0,1,77.19,179a5.13,5.13,0,0,0,4.53,5.4,92.51,92.51,0,0,0,20.81.06,5.15,5.15,0,0,0,4.57-5.3,20.57,20.57,0,0,1,12.66-19.73,21.36,21.36,0,0,1,22.91,5.21,5.17,5.17,0,0,0,7,.59,92.05,92.05,0,0,0,15-14.8,5.14,5.14,0,0,0-.55-7,20.5,20.5,0,0,1-5.18-23.07,20.71,20.71,0,0,1,18.92-12.54l1.14,0a5.15,5.15,0,0,0,5.41-4.54A92.28,92.28,0,0,0,184.4,82.23Zm-46.13,37.61L114.92,96.48A32.71,32.71,0,0,0,76.2,52.18a3.71,3.71,0,0,0-2.56,2.58,3.62,3.62,0,0,0,1,3.54S86.19,69.91,90,73.77a2.39,2.39,0,0,1,.35,1.71l0,.25A74.1,74.1,0,0,1,88.6,87l-.25.24-.26.26A72.25,72.25,0,0,1,76.64,89.3v0l-.2.05h-.18a2.47,2.47,0,0,1-1.77-.75c-4-4-15.09-15-15.09-15a3.75,3.75,0,0,0-2.69-1.2,3.66,3.66,0,0,0-3.45,2.79,32.71,32.71,0,0,0,44.32,38.66l23.6,23.6a53.28,53.28,0,1,1,17.09-17.59Z"/></svg>