<svg xmlns="http://www.w3.org/2000/svg" width="512" height="512" viewBox="0 0 512 512"><title>talk-web</title><path d="M251.37,432.79a10,10,0,1,0,2.93,7.07A10.08,10.08,0,0,0,251.37,432.79Z"/><path d="M299,340.54V267a10,10,0,0,0-13.73-9.28l-172.32,69.4H57.43a57.44,57.44,0,0,0,0,114.87H64V502a10,10,0,0,0,10,10h40.83a10,10,0,0,0,10-10V446.77l160.38,64.51A10,10,0,0,0,299,502V428.42a45.06,45.06,0,0,0,0-87.88ZM104.87,492H84V442h20.83V492Zm0-70.05H57.43a37.44,37.44,0,0,1,0-74.87h47.44ZM279,487.2h0l-154.11-62V343.83L234.3,299.76V399a10,10,0,0,0,20,0V291.7L279,281.76Zm20-79.74v-46a25.06,25.06,0,0,1,0,46Z"/><path d="M429.45,374.77H372.83a10,10,0,1,0,0,20h56.62a10,10,0,1,0,0-20Z"/><path d="M383,301.5a10,10,0,0,0-14.14,0L349.35,321a10,10,0,1,0,14.14,14.14L383,315.64A10,10,0,0,0,383,301.5Z"/><path d="M383.75,453l-20.18-20.19a10,10,0,0,0-14.14,14.15l20.18,20.18A10,10,0,0,0,383.75,453Z"/><path d="M472,0H286a40,40,0,0,0-40,40v4H78A24,24,0,0,0,54,68V226a24,24,0,0,0,24,24H88.33v30.67a10,10,0,0,0,17.07,7.07L143.14,250H341.78a24,24,0,0,0,24-24V196H472a40,40,0,0,0,40-40V40A40,40,0,0,0,472,0ZM345.78,226a4,4,0,0,1-4,4H139a10,10,0,0,0-7.07,2.93l-23.6,23.59V240a10,10,0,0,0-10-10H78a4,4,0,0,1-4-4V68a4,4,0,0,1,4-4H246v92a40,40,0,0,0,40,40h59.78ZM492,156a20,20,0,0,1-20,20H286a20,20,0,0,1-20-20V40a20,20,0,0,1,20-20H472a20,20,0,0,1,20,20Z"/><path d="M419.17,89.34,350.73,49.83a10,10,0,0,0-15,8.66v79a10,10,0,0,0,15,8.66l68.44-39.51a10,10,0,0,0,0-17.32Zm-63.44,30.85V75.81L394.17,98Z"/><path d="M214.51,105h-100a10,10,0,1,0,0,20h100a10,10,0,0,0,0-20Z"/><path d="M221.58,163.93a10,10,0,1,0,2.93,7.07A10.08,10.08,0,0,0,221.58,163.93Z"/><path d="M177,161H114.51a10,10,0,1,0,0,20H177a10,10,0,0,0,0-20Z"/></svg>