<svg xmlns="http://www.w3.org/2000/svg" width="119.27" height="89.5" viewBox="0 0 119.27 89.5"><title>technology</title><path d="M74.37,1.21,70.33.1A1.83,1.83,0,0,0,68.8.26a2.11,2.11,0,0,0-1,1.27L43.47,85.68a2,2,0,0,0,.16,1.6,2.1,2.1,0,0,0,1.27,1l4,1.11a1.8,1.8,0,0,0,1.53-.16,2.12,2.12,0,0,0,1-1.27L75.8,3.82a2,2,0,0,0-.16-1.6A2.13,2.13,0,0,0,74.37,1.21Z"/><path d="M37.93,17.63a2.06,2.06,0,0,0-.65-1.5L34,12.87a2.05,2.05,0,0,0-3,0L.65,43.25a2.05,2.05,0,0,0,0,3L31,76.62a2.05,2.05,0,0,0,3,0l3.26-3.25a2,2,0,0,0,0-3L11.67,44.75,37.28,19.13A2,2,0,0,0,37.93,17.63Z"/><path d="M118.63,43.25,88.25,12.87a2,2,0,0,0-3,0L82,16.13a2.05,2.05,0,0,0,0,3l25.61,25.61L82,70.36a2.05,2.05,0,0,0,0,3l3.26,3.25a2,2,0,0,0,3,0l30.38-30.37a2.06,2.06,0,0,0,0-3Z"/></svg>