<svg xmlns="http://www.w3.org/2000/svg" width="487.02" height="428.4" viewBox="0 0 487.02 428.4"><title>description</title><path d="M469.87,0H17.16A17.15,17.15,0,0,0,0,17.15v69.4a17.15,17.15,0,0,0,17.16,17.16H469.87A17.15,17.15,0,0,0,487,86.56V17.15A17.14,17.14,0,0,0,469.87,0Z"/><path d="M469.87,162.34H17.16A17.14,17.14,0,0,0,0,179.5V248.9a17.14,17.14,0,0,0,17.16,17.15H469.87A17.14,17.14,0,0,0,487,248.9V179.5A17.14,17.14,0,0,0,469.87,162.34Z"/><path d="M226.36,324.69H17.16A17.14,17.14,0,0,0,0,341.84v69.41A17.14,17.14,0,0,0,17.16,428.4h209.2a17.14,17.14,0,0,0,17.15-17.15V341.84A17.14,17.14,0,0,0,226.36,324.69Z"/></svg>