<svg xmlns="http://www.w3.org/2000/svg" width="27.2" height="48" viewBox="0 0 27.2 48"><title>user-interface</title><path d="M23.68,0H3.52A3.53,3.53,0,0,0,0,3.52v41A3.53,3.53,0,0,0,3.52,48H23.68a3.53,3.53,0,0,0,3.52-3.52v-41A3.53,3.53,0,0,0,23.68,0ZM1.6,6.4h24V36.8H1.6ZM3.52,1.6H23.68A1.93,1.93,0,0,1,25.6,3.52V4.8H1.6V3.52A1.92,1.92,0,0,1,3.52,1.6ZM23.68,46.4H3.52A1.92,1.92,0,0,1,1.6,44.48V38.4h24v6.08a1.93,1.93,0,0,1-1.93,1.92Zm0,0"/><path d="M13.6,39.2a3.2,3.2,0,1,0,3.2,3.2,3.21,3.21,0,0,0-3.2-3.2Zm0,4.8a1.6,1.6,0,1,1,1.6-1.6A1.6,1.6,0,0,1,13.6,44Zm0,0"/><path d="M10.4,4h3.2a.8.8,0,0,0,0-1.6H10.4a.8.8,0,0,0,0,1.6Zm0,0"/><path d="M16,4h.8a.8.8,0,1,0,0-1.6H16A.8.8,0,0,0,16,4Zm0,0"/><path d="M15.17,8.82H12a1.63,1.63,0,0,0-1.63,1.63v3.14A1.63,1.63,0,0,0,12,15.22h3.14a1.63,1.63,0,0,0,1.63-1.63V10.45a1.63,1.63,0,0,0-1.63-1.63Zm0,4.77s0,0,0,0l-3.17,0,0-3.17,3.17,0Zm0,0"/><path d="M8,8.82H4.83A1.63,1.63,0,0,0,3.2,10.45v3.14a1.63,1.63,0,0,0,1.63,1.63H8A1.63,1.63,0,0,0,9.6,13.59V10.45A1.63,1.63,0,0,0,8,8.82Zm0,4.77a0,0,0,0,1,0,0l-3.17,0,0-3.17,3.17,0Zm0,0"/><path d="M22.37,8.82H19.23a1.63,1.63,0,0,0-1.63,1.63v3.14a1.63,1.63,0,0,0,1.63,1.63h3.14A1.63,1.63,0,0,0,24,13.59V10.45a1.63,1.63,0,0,0-1.63-1.63Zm0,4.77a0,0,0,0,1,0,0l-3.17,0,0-3.17,3.17,0Zm0,0"/><path d="M15.17,16H12a1.63,1.63,0,0,0-1.63,1.63v3.14A1.63,1.63,0,0,0,12,22.4h3.14a1.63,1.63,0,0,0,1.63-1.63V17.63A1.63,1.63,0,0,0,15.17,16Zm0,4.77a0,0,0,0,1,0,0l-3.17,0,0-3.17,3.17,0Zm0,0"/><path d="M8,16H4.83A1.63,1.63,0,0,0,3.2,17.63v3.14A1.63,1.63,0,0,0,4.83,22.4H8A1.63,1.63,0,0,0,9.6,20.77V17.63A1.63,1.63,0,0,0,8,16Zm0,4.77a0,0,0,0,1,0,0l-3.17,0,0-3.17,3.17,0Zm0,0"/><path d="M22.37,16H19.23a1.63,1.63,0,0,0-1.63,1.63v3.14a1.63,1.63,0,0,0,1.63,1.63h3.14A1.63,1.63,0,0,0,24,20.77V17.63A1.63,1.63,0,0,0,22.37,16Zm0,4.77a0,0,0,0,1,0,0l-3.17,0,0-3.17,3.17,0Zm0,0"/><path d="M15.17,23.2H12a1.64,1.64,0,0,0-1.63,1.63V28A1.64,1.64,0,0,0,12,29.6h3.14A1.64,1.64,0,0,0,16.8,28V24.83a1.63,1.63,0,0,0-1.63-1.63Zm0,4.77a0,0,0,0,1,0,0L12,28l0-3.17,3.17,0Zm0,0"/><path d="M8,23.2H4.83A1.63,1.63,0,0,0,3.2,24.83V28A1.64,1.64,0,0,0,4.83,29.6H8A1.64,1.64,0,0,0,9.6,28V24.83A1.64,1.64,0,0,0,8,23.2ZM8,28a0,0,0,0,1,0,0L4.8,28l0-3.17,3.17,0Zm0,0"/><path d="M22.37,23.2H19.23a1.63,1.63,0,0,0-1.63,1.63V28a1.63,1.63,0,0,0,1.63,1.63h3.14A1.63,1.63,0,0,0,24,28V24.83a1.63,1.63,0,0,0-1.63-1.63Zm0,4.77a0,0,0,0,1,0,0L19.2,28l0-3.17,3.17,0Zm0,0"/></svg>