<svg xmlns="http://www.w3.org/2000/svg" width="408.8" height="319.2" viewBox="0 0 408.8 319.2"><title>ux-design</title><path d="M31.6,37.6a6,6,0,1,0-4.24-1.76A6,6,0,0,0,31.6,37.6Zm0,0"/><path d="M50.8,37.6a6,6,0,1,0-4.24-1.76A6,6,0,0,0,50.8,37.6Zm0,0"/><path d="M70,37.6a6,6,0,1,0-4.24-1.76A6,6,0,0,0,70,37.6Zm0,0"/><path d="M95.6,37.6H338.8a6,6,0,0,0,0-12H95.6a6,6,0,0,0,0,12Zm0,0"/><path d="M364.4,37.6h12.8a6,6,0,0,0,0-12H364.4a6,6,0,0,0,0,12Zm0,0"/><path d="M351.6,89.6H236.4a18.82,18.82,0,0,0-18.8,18.8v.4h-6.8A18.82,18.82,0,0,0,192,127.6v51.6H178.4V159.6a18.82,18.82,0,0,0-18.8-18.8H57.2a18.82,18.82,0,0,0-18.8,18.8v51.2a18.82,18.82,0,0,0,18.8,18.8H159.6a18.82,18.82,0,0,0,18.8-18.8V191.2H192v51.6a18.82,18.82,0,0,0,18.8,18.8h6.8v.4a18.82,18.82,0,0,0,18.8,18.8H351.6A18.82,18.82,0,0,0,370.4,262V249.2a18.82,18.82,0,0,0-18.8-18.8H236.4a18.82,18.82,0,0,0-18.8,18.8v.4h-6.8a6.81,6.81,0,0,1-6.8-6.8V191.2h13.6v.4a18.82,18.82,0,0,0,18.8,18.8H351.6a18.82,18.82,0,0,0,18.8-18.8V178.8A18.82,18.82,0,0,0,351.6,160H236.4a18.82,18.82,0,0,0-18.8,18.8v.4H204V127.6a6.81,6.81,0,0,1,6.8-6.8h6.8v.4A18.82,18.82,0,0,0,236.4,140H351.6a18.82,18.82,0,0,0,18.8-18.8V108.4a18.82,18.82,0,0,0-18.8-18.8ZM166.4,210.8a6.81,6.81,0,0,1-6.8,6.8H57.2a6.81,6.81,0,0,1-6.8-6.8V159.6a6.81,6.81,0,0,1,6.8-6.8H159.6a6.81,6.81,0,0,1,6.8,6.8Zm63.2,38.4a6.81,6.81,0,0,1,6.8-6.8H351.6a6.81,6.81,0,0,1,6.8,6.8V262a6.81,6.81,0,0,1-6.8,6.8H236.4a6.81,6.81,0,0,1-6.8-6.8Zm0-70.4a6.81,6.81,0,0,1,6.8-6.8H351.6a6.81,6.81,0,0,1,6.8,6.8v12.8a6.81,6.81,0,0,1-6.8,6.8H236.4a6.81,6.81,0,0,1-6.8-6.8Zm128.8-57.6a6.81,6.81,0,0,1-6.8,6.8H236.4a6.81,6.81,0,0,1-6.8-6.8V108.4a6.81,6.81,0,0,1,6.8-6.8H351.6a6.81,6.81,0,0,1,6.8,6.8Zm0,0"/><path d="M377.2,0H31.6A31.64,31.64,0,0,0,0,31.6v256a31.64,31.64,0,0,0,31.6,31.6H377.2a31.64,31.64,0,0,0,31.6-31.6V31.6A31.64,31.64,0,0,0,377.2,0ZM31.6,12H377.2a19.62,19.62,0,0,1,19.6,19.6V51.2H12V31.6A19.62,19.62,0,0,1,31.6,12ZM377.2,307.2H31.6A19.62,19.62,0,0,1,12,287.6V63.2H396.8V287.6a19.62,19.62,0,0,1-19.6,19.6Zm0,0"/></svg>