<svg xmlns="http://www.w3.org/2000/svg" width="228" height="224.97" viewBox="0 0 228 224.97"><title>work</title><path d="M45.16,87.4a44.07,44.07,0,0,0,13.42-2.1l25.77,25.75,28.22-28.21L86.81,57.06A43.87,43.87,0,0,0,76.13,12.78,43.35,43.35,0,0,0,45.27,0,44.08,44.08,0,0,0,26.39,4.26a3,3,0,0,0-.83,4.84L52.67,36.22a10.55,10.55,0,0,1,0,14.95,10.8,10.8,0,0,1-14.94,0L10.61,24a3,3,0,0,0-4.83.83A43.67,43.67,0,0,0,45.16,87.4Zm0,0"/><path d="M182.86,137.56a44.15,44.15,0,0,0-13.44,2.11l-28.5-28.5L112.68,139.4l28.51,28.51a43.89,43.89,0,0,0,10.69,44.28A43.35,43.35,0,0,0,182.73,225a44.17,44.17,0,0,0,18.89-4.27,3,3,0,0,0,.83-4.84l-27.12-27.13a10.53,10.53,0,0,1,0-14.93,10.8,10.8,0,0,1,14.93,0l27.12,27.12a3,3,0,0,0,4.84-.83,43.67,43.67,0,0,0-39.36-62.53Zm0,0"/><path d="M171.26,73.27s4.72,4.13,8.61,2.2c4.4-2.21,16.78,10,20.74,12.85l.09,0-2.16,2.17a7.25,7.25,0,1,0,10.26,10.25l17.1-17.08a7.26,7.26,0,0,0-10.27-10.27l-2.85,2.85c-2.36-3.25-6.28-8.79-5.78-10.62,2.09-8-14.3-27-14.3-27C152-2.06,124.81-1.13,111.88,3.31c-5.19,1.79-4.23,2.92,1.16,3.87,39.23,6.85,44.1,30,37.45,38.91-2.56,3.44,1.17,7.6,1.17,7.6l1.4,1.4L86.82,121.32a13,13,0,0,1,2.54,1.93l11.15,11.13a12.74,12.74,0,0,1,1.91,2.52l66.25-66.23Zm0,0"/><path d="M84.91,127.7a6.9,6.9,0,0,0-9.22-.33l-73.61,66a5.79,5.79,0,0,0-.32,8.58L21.8,222a5.79,5.79,0,0,0,8.57-.3l66-73.64a6.89,6.89,0,0,0-.34-9.21Zm0,0"/></svg>